<?xml version="1.0" standalone="no"?>
<!DOCTYPE svg PUBLIC "-//W3C//DTD SVG 20010904//EN"
 "http://www.w3.org/TR/2001/REC-SVG-20010904/DTD/svg10.dtd">
<svg version="1.0" xmlns="http://www.w3.org/2000/svg"
 width="600.000000pt" height="600.000000pt" viewBox="0 0 600.000000 600.000000"
 preserveAspectRatio="xMidYMid meet">

<g transform="translate(0.000000,600.000000) scale(0.100000,-0.100000)"
fill="#000000" stroke="none">
<path d="M2956 4881 c-9 -14 65 -24 78 -10 8 9 5 10 -16 5 -15 -3 -30 -2 -33
4 -8 12 -22 13 -29 1z"/>
<path d="M2696 4853 c-12 -12 -5 -23 14 -23 11 0 20 4 20 9 0 11 -26 22 -34
14z"/>
<path d="M2933 4825 c-36 -16 -39 -22 -19 -48 9 -12 16 -14 21 -7 4 6 2 17 -4
24 -14 17 -4 26 29 26 35 0 60 -28 60 -68 0 -17 5 -34 10 -37 13 -8 13 20 0
66 -6 23 -19 40 -36 47 -13 7 -26 12 -27 12 -1 -1 -17 -7 -34 -15z"/>
<path d="M3082 4822 l-23 -18 21 -47 c12 -26 25 -47 30 -47 14 0 13 4 -12 46
l-22 37 23 18 c29 24 32 24 65 -2 20 -16 26 -29 26 -60 0 -21 5 -39 10 -39 15
0 0 82 -19 102 -25 27 -72 32 -99 10z"/>
<path d="M2490 4815 c-8 -9 -8 -15 -2 -15 12 0 26 19 19 26 -2 2 -10 -2 -17
-11z"/>
<path d="M2791 4821 c-14 -4 -26 -12 -28 -18 -3 -9 3 -9 26 0 31 11 61 -2 61
-28 0 -15 31 -78 36 -73 12 13 -47 130 -65 127 -3 -1 -17 -4 -30 -8z"/>
<path d="M2441 4787 c-15 -19 -2 -29 15 -12 8 7 14 16 14 19 0 11 -17 6 -29
-7z"/>
<path d="M2640 4788 c-31 -13 -12 -22 21 -10 28 11 69 -4 69 -25 0 -7 5 -13
10 -13 12 0 -7 41 -24 52 -15 10 -46 9 -76 -4z"/>
<path d="M3120 4787 c0 -3 7 -18 15 -33 l16 -29 -3 29 c-2 16 -9 31 -15 34 -7
2 -13 2 -13 -1z"/>
<path d="M2486 4741 c-4 -5 2 -15 13 -21 12 -6 24 -25 29 -42 4 -17 13 -33 20
-36 8 -2 3 17 -11 49 -23 53 -40 69 -51 50z"/>
<path d="M2670 4735 c-6 -8 -9 -19 -5 -26 6 -8 10 -8 16 2 6 11 14 9 39 -10
17 -12 34 -21 36 -18 7 7 -7 37 -16 32 -4 -3 -19 4 -33 15 -21 17 -26 18 -37
5z"/>
<path d="M2920 4740 c0 -21 16 -44 23 -33 4 6 0 19 -8 29 -11 15 -14 16 -15 4z"/>
<path d="M2400 4716 c0 -8 9 -20 20 -26 11 -6 23 -22 26 -35 3 -13 12 -29 20
-36 21 -17 19 19 -3 43 -9 10 -21 28 -27 40 -13 26 -36 35 -36 14z"/>
<path d="M2330 4693 c0 -5 9 -22 19 -40 19 -30 19 -32 2 -47 -24 -22 -25 -21
-56 25 -19 29 -30 38 -37 31 -8 -8 -3 -19 18 -39 16 -16 34 -37 40 -48 11 -20
12 -20 30 2 11 12 30 24 44 28 17 4 21 3 11 -3 -8 -6 -9 -12 -3 -16 5 -3 13 1
16 10 4 9 5 17 4 18 -26 10 -46 28 -58 54 -14 29 -30 42 -30 25z"/>
<path d="M2200 4634 c0 -3 11 -20 25 -38 31 -40 31 -42 3 -51 -22 -7 -22 -8 5
-12 16 -3 31 -2 34 0 6 6 -50 107 -59 107 -5 0 -8 -3 -8 -6z"/>
<path d="M2127 4603 c-12 -11 -8 -23 6 -17 19 7 52 -53 38 -70 -8 -10 -8 -16
3 -25 11 -9 15 -6 20 14 5 19 -1 36 -21 65 -29 41 -35 45 -46 33z"/>
<path d="M4166 4583 c-1 -1 -202 -3 -447 -3 -466 -1 -630 -11 -789 -50 -335
-81 -645 -261 -906 -526 -215 -219 -375 -484 -475 -789 -70 -210 -97 -513 -65
-720 18 -113 21 -124 57 -235 84 -255 216 -440 431 -603 164 -124 401 -213
627 -233 132 -12 391 7 486 36 17 5 77 23 135 41 193 57 460 204 625 342 189
159 367 367 466 543 40 71 109 207 109 214 0 3 -39 5 -87 5 -90 1 -688 14
-866 20 -54 1 -100 5 -103 8 -3 3 0 31 5 63 6 33 18 111 26 174 30 239 55 417
62 460 l9 45 124 2 c69 2 211 4 317 5 105 2 194 5 196 8 3 3 15 93 27 200 12
107 23 199 23 204 4 19 -64 24 -322 21 -190 -2 -275 1 -284 9 -12 9 -11 37 10
181 14 94 28 173 31 177 4 3 133 9 287 12 553 13 690 17 697 24 7 8 26 341 20
359 -3 9 -56 12 -214 10 -115 -1 -211 -3 -212 -4z m-910 -84 c3 -6 1 -16 -5
-22 -6 -6 -11 -24 -11 -39 0 -27 -2 -28 -52 -30 -121 -3 -256 -28 -382 -69
-96 -32 -274 -113 -341 -157 -61 -39 -129 -85 -135 -92 -3 -3 -36 -31 -75 -62
-367 -297 -614 -767 -639 -1218 -14 -241 48 -510 160 -696 181 -301 460 -479
829 -530 164 -22 437 11 620 76 171 61 377 174 501 275 53 44 257 245 288 285
27 34 166 229 166 233 0 1 -82 4 -182 6 -101 2 -219 4 -263 6 -44 2 -149 4
-233 4 -166 0 -169 2 -154 56 l9 30 169 -2 c368 -4 769 -15 777 -22 15 -15
-97 -195 -214 -341 -68 -86 -222 -241 -315 -317 -78 -64 -239 -165 -339 -213
-49 -23 -107 -51 -128 -61 -22 -11 -47 -19 -56 -19 -9 0 -21 -4 -26 -9 -16
-15 -195 -60 -307 -76 -282 -43 -610 8 -790 122 -21 12 -42 23 -48 23 -23 0
-171 123 -249 207 -45 48 -102 122 -127 164 -48 83 -112 223 -126 279 -64 250
-72 454 -29 685 69 369 262 726 541 1004 92 91 304 261 326 261 4 0 15 6 23
14 30 27 227 125 321 160 85 31 179 56 320 85 64 13 168 13 176 0z m-25 -151
c3 -31 -3 -74 -12 -82 -5 -5 -59 -15 -121 -22 -62 -7 -122 -14 -133 -17 -67
-16 -117 -31 -165 -48 -81 -29 -75 -26 -260 -120 -55 -27 -205 -141 -275 -207
-237 -227 -390 -489 -466 -798 -31 -122 -34 -441 -6 -549 80 -307 252 -534
502 -663 66 -34 149 -62 265 -89 94 -22 327 -22 445 1 310 59 579 210 817 459
38 39 67 72 65 73 -2 2 -125 4 -273 4 -149 1 -276 5 -283 9 -8 5 -9 23 -4 61
l8 53 165 -2 c91 -2 226 -4 300 -6 240 -4 260 -5 260 -15 0 -17 -155 -202
-232 -276 -109 -105 -235 -205 -323 -254 -215 -121 -404 -190 -586 -214 -605
-79 -1073 216 -1218 769 -25 95 -32 160 -32 311 -1 236 43 420 157 661 157
336 468 654 784 805 47 22 93 44 103 49 45 24 211 77 260 84 12 2 47 8 77 14
113 21 180 25 181 9z m-16 -148 c3 -5 -6 -89 -21 -187 -14 -98 -32 -225 -39
-283 -8 -58 -21 -150 -30 -205 -17 -109 -37 -248 -60 -420 -9 -60 -20 -128
-24 -150 -5 -22 -15 -85 -21 -140 -7 -55 -21 -154 -32 -220 -10 -66 -25 -164
-32 -218 -12 -89 -11 -99 4 -107 9 -5 25 -9 36 -8 10 0 129 -2 264 -6 135 -4
302 -8 372 -9 84 -1 128 -6 128 -13 0 -10 -67 -76 -135 -133 -155 -130 -440
-267 -625 -301 -169 -31 -381 -28 -512 6 -78 20 -209 81 -279 130 -190 132
-312 312 -375 554 -25 96 -26 404 -1 519 57 264 172 487 360 696 166 185 327
301 567 408 128 56 437 116 455 87z"/>
<path d="M2092 4514 c37 -52 51 -63 46 -39 -3 17 -61 85 -73 85 -3 0 9 -21 27
-46z"/>
<path d="M1987 4517 c-26 -20 -27 -24 -13 -42 12 -16 17 -18 27 -7 19 18 47
15 59 -7 7 -14 6 -21 -3 -24 -6 -2 -9 -8 -5 -12 4 -4 14 -5 23 -1 14 5 14 9 0
35 -20 39 -29 44 -60 29 -18 -8 -29 -8 -36 -1 -8 8 -1 17 27 32 22 11 32 20
24 21 -8 0 -28 -10 -43 -23z"/>
<path d="M1883 4435 c-13 -12 -23 -30 -23 -39 0 -17 57 -76 72 -76 16 0 7 19
-11 25 -11 3 -26 17 -35 30 -15 23 -15 26 4 45 28 28 44 25 75 -16 15 -19 29
-33 32 -30 10 9 -58 86 -75 85 -10 -1 -27 -11 -39 -24z"/>
<path d="M2106 4385 c4 -8 8 -15 10 -15 2 0 4 7 4 15 0 8 -4 15 -10 15 -5 0
-7 -7 -4 -15z"/>
<path d="M1923 4373 c9 -9 19 -14 23 -11 10 10 -6 28 -24 28 -15 0 -15 -1 1
-17z"/>
<path d="M1777 4352 c-36 -37 -34 -48 2 -21 16 12 37 19 45 16 19 -8 21 -27 3
-27 -18 0 -49 -40 -43 -55 3 -8 14 -19 25 -25 17 -9 20 -8 15 5 -4 8 -10 15
-15 15 -19 0 -8 31 16 42 21 9 28 8 45 -7 39 -35 19 1 -23 43 l-43 42 -27 -28z"/>
<path d="M2055 4370 c3 -5 13 -10 21 -10 8 0 12 5 9 10 -3 6 -13 10 -21 10 -8
0 -12 -4 -9 -10z"/>
<path d="M1690 4265 c0 -3 12 -19 28 -36 15 -17 26 -35 25 -40 -2 -5 6 -9 18
-9 13 0 18 4 13 12 -5 8 -2 9 11 4 15 -5 16 -4 6 8 -7 8 -18 13 -25 10 -7 -3
-25 9 -39 25 -24 29 -37 38 -37 26z"/>
<path d="M1635 4201 c-3 -5 -1 -12 5 -16 5 -3 10 0 10 6 0 7 20 -7 45 -31 27
-26 45 -38 45 -29 0 14 -75 79 -91 79 -4 0 -10 -4 -14 -9z"/>
<path d="M1560 4180 c-12 -8 -10 -10 8 -10 13 0 20 4 17 10 -7 12 -6 12 -25 0z"/>
<path d="M1576 4135 c-17 -13 -16 -14 17 -8 30 5 40 1 61 -22 14 -15 26 -24
26 -20 0 16 -53 65 -69 65 -9 0 -24 -7 -35 -15z"/>
<path d="M1521 4124 c0 -11 3 -14 6 -6 3 7 2 16 -1 19 -3 4 -6 -2 -5 -13z"/>
<path d="M1550 4090 c0 -5 5 -10 10 -10 6 0 10 5 10 10 0 6 -4 10 -10 10 -5 0
-10 -4 -10 -10z"/>
<path d="M1600 4060 c0 -10 10 -24 21 -31 18 -9 25 -7 43 11 l21 22 -21 -12
c-26 -16 -58 -6 -50 15 3 8 1 15 -4 15 -6 0 -10 -9 -10 -20z"/>
<path d="M1455 3960 c-10 -11 -16 -22 -13 -25 3 -3 13 4 23 15 10 11 24 20 30
20 19 0 26 -27 9 -34 -8 -3 -14 -10 -14 -16 0 -6 7 -5 20 2 16 10 24 10 40 0
33 -20 23 1 -14 31 -42 32 -57 34 -81 7z"/>
<path d="M1364 3892 c9 -14 86 -65 91 -60 3 2 -16 19 -40 36 -46 32 -61 39
-51 24z"/>
<path d="M1480 3886 c0 -16 38 -51 47 -43 3 4 -6 18 -20 31 -16 15 -27 20 -27
12z"/>
<path d="M1380 3810 c0 -14 18 -21 22 -9 3 9 9 9 25 0 27 -14 73 -15 73 -1 0
6 -3 10 -7 11 -60 6 -113 6 -113 -1z"/>
<path d="M1229 3758 c-12 -23 -12 -23 10 -4 23 21 26 26 11 26 -5 0 -15 -10
-21 -22z"/>
<path d="M1351 3756 c-8 -9 -8 -16 -2 -20 5 -4 12 -2 16 4 3 6 21 0 44 -15 22
-13 42 -21 45 -18 8 9 -14 33 -31 33 -7 0 -24 7 -37 15 -20 13 -25 14 -35 1z"/>
<path d="M1210 3719 c0 -8 7 -24 15 -35 11 -14 14 -15 14 -4 0 8 -6 24 -14 34
-11 15 -15 16 -15 5z"/>
<path d="M1255 3720 c-3 -5 3 -10 14 -10 11 0 46 -18 77 -40 55 -38 81 -50 70
-31 -6 10 -139 91 -149 91 -3 0 -9 -4 -12 -10z"/>
<path d="M1270 3575 c-6 -8 -10 -20 -7 -27 4 -9 6 -8 6 3 1 22 37 31 52 13 8
-10 8 -14 0 -14 -6 0 -11 -5 -11 -11 0 -8 4 -8 15 1 8 6 23 9 35 5 30 -10 24
1 -14 24 -39 25 -59 26 -76 6z"/>
<path d="M1300 3501 c0 -12 28 -41 40 -41 4 0 11 7 14 16 4 12 2 15 -9 11 -8
-4 -21 1 -30 9 -8 9 -15 11 -15 5z"/>
<path d="M1225 3429 c-4 -11 -4 -23 -1 -26 3 -4 6 1 6 10 0 21 31 22 69 2 16
-8 31 -11 35 -8 7 7 -68 43 -89 43 -8 0 -17 -9 -20 -21z"/>
<path d="M1216 3357 c5 -15 84 -50 92 -42 3 3 0 5 -6 5 -7 0 -21 9 -31 19 -25
25 -63 38 -55 18z"/>
<path d="M1097 3353 c-4 -3 -7 -13 -7 -22 1 -13 3 -13 11 2 11 19 8 33 -4 20z"/>
<path d="M1128 3303 c-11 -14 -11 -16 4 -10 9 3 38 -5 65 -17 65 -31 97 -41
89 -27 -4 6 -2 11 4 11 6 0 9 4 6 9 -3 4 -17 6 -30 4 -13 -3 -39 3 -58 12 -65
34 -66 35 -80 18z"/>
<path d="M1090 3282 c0 -5 7 -15 15 -22 8 -7 15 -8 15 -2 0 5 -7 15 -15 22 -8
7 -15 8 -15 2z"/>
<path d="M1157 3094 c-12 -13 5 -25 18 -14 11 9 20 8 37 -4 12 -9 32 -16 43
-15 14 0 8 6 -20 20 -42 19 -67 24 -78 13z"/>
<path d="M1195 3040 c10 -11 20 -20 23 -20 3 0 -3 9 -13 20 -10 11 -20 20 -23
20 -3 0 3 -9 13 -20z"/>
<path d="M1144 2995 c-8 -21 5 -33 16 -16 6 11 17 12 49 4 24 -7 41 -7 41 -2
0 11 -11 15 -63 24 -29 5 -39 2 -43 -10z"/>
<path d="M1098 2919 c-17 -10 -14 -39 4 -39 5 0 6 5 2 11 -3 6 0 15 7 20 19
12 7 19 -13 8z"/>
<path d="M1140 2920 c0 -5 11 -12 25 -16 14 -3 25 -10 25 -14 0 -5 10 -6 21
-3 21 6 21 6 -2 24 -26 20 -69 25 -69 9z"/>
<path d="M1139 2829 c-20 -12 -10 -16 56 -24 39 -5 57 -4 50 2 -16 16 -92 31
-106 22z"/>
<path d="M1130 2750 c0 -5 -9 -10 -20 -10 -11 0 -20 -4 -20 -9 0 -13 48 0 54
15 3 8 1 14 -4 14 -6 0 -10 -4 -10 -10z"/>
<path d="M1169 2723 c-12 -15 -12 -16 6 -9 11 5 31 8 45 7 20 -1 22 1 10 9
-23 15 -46 12 -61 -7z"/>
<path d="M1148 2658 c9 -9 15 -9 24 0 9 9 7 12 -12 12 -19 0 -21 -3 -12 -12z"/>
<path d="M1100 2650 c0 -5 5 -10 11 -10 5 0 7 5 4 10 -3 6 -8 10 -11 10 -2 0
-4 -4 -4 -10z"/>
<path d="M1140 2612 c0 -5 23 -14 50 -19 28 -6 50 -7 50 -2 0 8 -15 13 -67 24
-19 4 -33 2 -33 -3z"/>
<path d="M4691 2554 c0 -11 3 -14 6 -6 3 7 2 16 -1 19 -3 4 -6 -2 -5 -13z"/>
<path d="M4578 2513 c-21 -25 -28 -39 -38 -73 -12 -43 -4 -37 19 15 14 31 27
46 46 51 38 9 68 -21 63 -63 -2 -18 0 -33 5 -33 13 0 2 87 -13 105 -17 20 -64
19 -82 -2z"/>
<path d="M1150 2508 c0 -6 2 -9 6 -6 3 3 21 2 41 -3 21 -4 44 -4 52 1 9 5 14
10 11 10 -57 9 -110 8 -110 -2z"/>
<path d="M4526 2381 c-9 -14 5 -20 69 -27 44 -5 59 -4 66 7 13 21 11 33 -5 20
-14 -11 -95 -9 -115 3 -5 4 -12 2 -15 -3z"/>
<path d="M1263 2318 c-13 -6 -23 -19 -23 -30 0 -17 1 -17 20 2 27 27 46 25 75
-6 28 -30 34 -20 7 12 -22 28 -51 35 -79 22z"/>
<path d="M4500 2316 c0 -9 5 -16 10 -16 6 0 10 4 10 9 0 6 -4 13 -10 16 -5 3
-10 -1 -10 -9z"/>
<path d="M4480 2268 c0 -7 -7 -25 -14 -40 -8 -15 -11 -30 -6 -33 5 -3 11 3 15
14 11 36 28 41 80 26 60 -19 75 -19 52 0 -11 7 -36 17 -58 20 -21 4 -41 11
-45 16 -8 13 -24 11 -24 -3z"/>
<path d="M1363 2211 c4 -29 17 -39 17 -13 0 11 -5 24 -10 27 -6 4 -9 -2 -7
-14z"/>
<path d="M1240 2193 c0 -6 8 -21 18 -33 l18 -22 24 21 25 21 -29 -6 c-22 -5
-32 -2 -43 11 -7 11 -13 14 -13 8z"/>
<path d="M4556 2127 c-19 -48 -29 -51 -82 -28 -53 24 -54 24 -54 12 0 -8 93
-51 110 -51 13 0 59 89 50 95 -5 3 -16 -10 -24 -28z"/>
<path d="M1310 2100 c-11 -11 -19 -28 -19 -37 1 -15 2 -15 6 -2 7 29 47 43 84
30 32 -11 32 -11 14 9 -23 26 -59 26 -85 0z"/>
<path d="M4490 1996 c0 -8 7 -16 15 -20 17 -6 18 -4 9 18 -8 20 -24 21 -24 2z"/>
<path d="M1416 1981 c-14 -22 -57 -33 -74 -19 -13 11 -14 10 -10 -2 2 -8 18
-16 34 -18 33 -3 69 18 62 38 -3 11 -6 11 -12 1z"/>
<path d="M4455 1949 c-10 -15 3 -25 16 -12 7 7 7 13 1 17 -6 3 -14 1 -17 -5z"/>
<path d="M4282 1907 c-40 -41 -52 -96 -27 -117 9 -8 33 -14 52 -14 47 0 103
58 103 107 0 42 -15 57 -60 57 -28 0 -44 -8 -68 -33z m96 7 c31 -22 27 -51
-12 -90 -36 -36 -62 -42 -88 -21 -33 25 -22 71 25 105 38 26 46 27 75 6z"/>
<path d="M1354 1888 c-7 -11 35 -20 83 -16 53 3 62 -8 33 -40 -11 -11 -20 -28
-20 -36 0 -8 -4 -18 -10 -21 -12 -7 -13 -25 -2 -25 13 0 74 122 65 130 -10 10
-143 18 -149 8z"/>
<path d="M4162 1771 c-12 -10 -28 -31 -36 -46 -13 -25 -13 -32 0 -57 11 -22
22 -28 46 -28 35 0 93 33 108 60 17 33 11 36 -15 7 -37 -39 -75 -56 -103 -46
-44 16 -37 61 17 106 14 12 21 22 15 23 -6 0 -21 -8 -32 -19z"/>
<path d="M1518 1750 c-27 -17 -48 -34 -48 -40 0 -9 97 47 106 62 10 15 -11 8
-58 -22z"/>
<path d="M1651 1588 c-28 -23 -49 -43 -47 -46 6 -6 59 30 75 51 8 11 21 17 33
14 16 -4 17 -3 7 9 -6 8 -13 14 -14 14 -1 0 -25 -19 -54 -42z"/>
<path d="M3984 1615 c-10 -8 -14 -14 -9 -15 15 0 40 18 34 24 -3 3 -14 -1 -25
-9z"/>
<path d="M1740 1591 c0 -5 5 -13 10 -16 6 -3 10 -2 10 4 0 5 -4 13 -10 16 -5
3 -10 2 -10 -4z"/>
<path d="M3928 1573 c-28 -14 -38 -33 -18 -33 6 0 10 5 10 10 0 25 49 8 74
-25 15 -20 32 -32 38 -29 7 5 -3 20 -25 41 -21 18 -37 38 -37 43 0 13 -8 11
-42 -7z"/>
<path d="M1680 1556 c0 -2 7 -9 15 -16 9 -7 15 -8 15 -2 0 5 -7 12 -15 16 -8
3 -15 4 -15 2z"/>
<path d="M1748 1500 c-33 -31 -39 -43 -30 -52 9 -9 12 -9 12 0 0 7 19 31 43
52 23 22 36 40 29 40 -7 0 -32 -18 -54 -40z"/>
<path d="M3850 1513 c0 -5 14 -21 30 -37 17 -16 27 -33 23 -37 -5 -4 -42 -1
-83 6 -41 7 -79 9 -84 5 -9 -9 43 -100 57 -100 13 0 8 12 -19 47 -14 19 -23
37 -20 40 3 3 31 1 62 -6 72 -14 114 -14 114 0 0 13 -61 89 -72 89 -4 0 -8 -3
-8 -7z"/>
<path d="M1853 1445 c-28 -19 -35 -51 -15 -67 13 -11 14 -11 8 0 -11 18 13 62
33 62 9 0 23 5 31 10 12 8 10 10 -10 10 -14 0 -35 -7 -47 -15z"/>
<path d="M1940 1443 c8 -3 22 -11 30 -17 13 -10 13 -9 1 7 -7 9 -21 17 -30 16
-13 0 -14 -1 -1 -6z"/>
<path d="M1740 1430 c0 -5 10 -15 23 -21 22 -12 22 -12 3 10 -21 23 -26 26
-26 11z"/>
<path d="M3635 1409 c-16 -10 -34 -20 -38 -22 -12 -4 36 -106 51 -107 6 0 12
5 12 10 0 6 -4 10 -10 10 -5 0 -10 8 -10 19 0 10 -7 24 -15 31 -23 19 -18 29
20 47 19 9 35 20 35 25 0 12 -12 9 -45 -13z"/>
<path d="M1990 1393 c0 -31 -38 -64 -67 -59 -13 3 -23 0 -23 -5 0 -14 53 -11
77 6 24 17 34 47 22 66 -6 10 -9 8 -9 -8z"/>
<path d="M2045 1343 c-12 -75 -12 -84 -5 -88 3 -2 20 5 36 15 50 34 59 38 77
44 9 3 17 10 17 16 0 19 -29 10 -63 -20 -46 -40 -60 -39 -55 3 3 17 8 40 13
50 4 10 3 17 -3 17 -6 0 -14 -17 -17 -37z"/>
<path d="M3663 1363 c-7 -2 -13 -8 -13 -13 0 -10 38 -1 46 11 6 10 -13 11 -33
2z"/>
<path d="M3507 1336 c-9 -12 -19 -39 -22 -60 -4 -20 -11 -36 -17 -36 -5 0 -32
16 -61 35 -28 19 -55 31 -59 27 -4 -4 0 -34 9 -65 11 -39 19 -55 26 -48 7 7 7
14 0 23 -14 18 -23 57 -14 62 4 3 29 -11 56 -29 27 -19 50 -33 53 -30 3 2 12
28 22 57 13 39 22 52 34 50 15 -3 16 0 6 17 -13 26 -14 26 -33 -3z"/>
<path d="M3697 1313 c-16 -8 -26 -17 -23 -20 5 -6 76 24 76 32 0 9 -25 3 -53
-12z"/>
<path d="M2220 1275 c-21 -21 -42 -34 -54 -33 -10 2 -21 -3 -23 -9 -9 -26 37
-12 81 25 24 20 45 40 45 45 2 16 -17 5 -49 -28z"/>
<path d="M3551 1295 c-1 -24 15 -52 24 -43 4 3 0 19 -9 35 -13 23 -15 24 -15
8z"/>
<path d="M2157 1293 c-4 -3 -7 -13 -7 -22 1 -13 3 -13 11 2 11 19 8 33 -4 20z"/>
<path d="M3267 1274 c-3 -4 -2 -15 4 -26 6 -10 9 -31 7 -45 -2 -20 -12 -29
-42 -40 -35 -12 -41 -11 -58 3 -10 10 -18 31 -18 50 0 18 -5 36 -12 40 -8 5
-9 -2 -5 -26 4 -18 7 -41 7 -51 0 -30 39 -43 87 -30 56 15 66 30 58 85 -7 44
-14 54 -28 40z"/>
<path d="M2370 1243 c-6 -16 -15 -36 -21 -46 -6 -11 -8 -21 -5 -24 10 -10 25
8 31 37 4 16 11 32 16 35 12 8 12 25 -1 25 -6 0 -15 -12 -20 -27z"/>
<path d="M2452 1248 c-7 -7 -12 -19 -12 -27 0 -9 -7 -28 -14 -43 -12 -23 -13
-28 -1 -28 7 0 16 14 20 30 4 17 14 37 22 46 10 9 12 19 6 25 -5 5 -14 4 -21
-3z"/>
<path d="M2584 1213 c-4 -16 -8 -37 -8 -48 -1 -22 -26 -22 -38 -1 -4 7 -17 24
-28 37 l-21 24 18 -33 c43 -79 76 -87 85 -19 3 18 8 40 13 50 4 10 3 17 -3 17
-5 0 -13 -12 -18 -27z"/>
<path d="M2710 1231 c0 -10 42 -23 49 -15 7 6 -20 24 -36 24 -7 0 -13 -4 -13
-9z"/>
<path d="M2970 1180 c0 -33 4 -60 10 -60 6 0 10 11 10 25 0 21 5 25 30 25 39
0 77 35 59 56 -6 8 -19 14 -27 14 -13 0 -12 -3 4 -14 25 -19 8 -37 -37 -39
-41 -2 -46 21 -9 40 l25 13 -32 0 -33 0 0 -60z"/>
<path d="M2660 1215 c-17 -20 2 -42 44 -53 37 -10 41 -34 6 -42 -14 -3 -20 -9
-14 -12 12 -8 56 12 61 28 2 7 -17 22 -42 34 -41 20 -59 40 -35 40 6 0 10 5
10 10 0 15 -16 12 -30 -5z"/>
<path d="M2800 1221 c0 -4 11 -6 25 -3 29 5 34 -17 19 -85 -2 -13 0 -23 5 -23
5 0 13 23 18 52 7 44 12 53 33 59 17 5 5 7 -37 8 -35 1 -63 -3 -63 -8z"/>
<path d="M3070 1150 c0 -13 28 -25 38 -16 3 4 0 11 -8 16 -20 13 -30 12 -30 0z"/>
<path d="M2640 1120 c0 -6 7 -10 15 -10 8 0 15 2 15 4 0 2 -7 6 -15 10 -8 3
-15 1 -15 -4z"/>
</g>
</svg>
