<?xml version="1.0" standalone="no"?>
<!DOCTYPE svg PUBLIC "-//W3C//DTD SVG 20010904//EN"
 "http://www.w3.org/TR/2001/REC-SVG-20010904/DTD/svg10.dtd">
<svg version="1.0" xmlns="http://www.w3.org/2000/svg"
 width="1640.000000pt" height="286.000000pt" viewBox="0 0 1640.000000 286.000000"
 preserveAspectRatio="xMidYMid meet">

<g transform="translate(0.000000,286.000000) scale(0.100000,-0.100000)"
fill="#000000" stroke="none">
<path d="M1175 2396 c-398 -79 -714 -357 -820 -721 -133 -459 80 -973 482
-1161 170 -80 348 -112 564 -100 146 7 235 24 393 75 156 50 348 90 444 92 39
1 72 5 72 10 0 4 -16 31 -36 61 l-35 53 4 220 c3 132 10 238 18 264 16 56 78
120 142 147 31 12 46 24 45 34 -3 13 -58 15 -428 15 -352 0 -425 -2 -425 -14
0 -8 27 -20 72 -31 93 -24 141 -50 186 -99 49 -54 58 -92 64 -266 9 -275 -35
-365 -214 -438 -145 -59 -309 -60 -475 -3 -53 18 -123 48 -154 67 -85 50 -221
190 -281 287 -56 91 -124 280 -142 392 -15 93 -13 316 3 403 19 100 73 239
121 312 61 94 198 224 280 267 132 68 208 90 335 95 134 6 212 -9 323 -60 131
-61 252 -185 360 -366 27 -45 55 -81 63 -81 19 0 19 2 -25 136 -22 65 -56 171
-76 235 l-35 116 -78 6 c-42 3 -142 17 -222 32 -178 33 -415 42 -525 21z
m-245 -133 c-25 -20 -88 -80 -141 -132 -187 -187 -272 -410 -272 -711 -1 -197
40 -364 125 -515 60 -107 71 -121 151 -203 80 -82 181 -150 298 -198 76 -32
89 -40 66 -42 -48 -6 -188 36 -292 87 -337 166 -523 497 -502 896 18 352 195
623 537 822 73 43 86 41 30 -4z m1334 -919 c11 -4 -5 -22 -58 -64 -89 -71 -86
-56 -86 -400 l0 -247 -43 -6 c-24 -3 -80 -18 -126 -32 -46 -15 -85 -24 -89
-21 -3 4 6 19 20 34 29 30 56 80 69 126 13 46 12 461 -1 485 -6 12 -40 43 -76
70 -38 29 -59 51 -52 54 18 8 423 8 442 1z"/>
<path d="M4385 1553 l0 -844 109 3 109 3 -4 115 c-2 63 -4 442 -4 841 l0 727
-105 0 -105 -1 0 -844z"/>
<path d="M2540 2353 c0 -13 16 -23 58 -35 142 -42 197 -113 213 -278 6 -59 9
-340 7 -692 -5 -647 -7 -670 -64 -745 -30 -39 -111 -89 -171 -104 -32 -8 -43
-16 -43 -30 0 -19 15 -19 462 -17 413 3 463 5 466 19 2 12 -11 19 -50 28 -114
25 -215 87 -248 151 -32 63 -40 156 -40 501 0 372 -10 339 98 339 187 0 318
-36 384 -107 35 -37 75 -125 96 -212 13 -55 21 -71 35 -71 16 0 17 22 15 368
-3 313 -5 367 -18 367 -8 0 -19 -17 -26 -41 -17 -57 -49 -118 -86 -159 -62
-71 -139 -94 -346 -102 l-154 -6 4 299 c3 286 4 301 26 349 50 108 109 137
299 143 209 7 331 -24 437 -109 85 -70 164 -189 196 -297 14 -43 33 -68 47
-59 5 3 -3 119 -17 259 l-25 253 -777 3 c-736 2 -778 1 -778 -15z m1471 -113
c9 -47 15 -88 13 -91 -2 -4 -34 23 -71 60 -38 36 -88 75 -113 86 l-44 20 29 5
c16 3 61 5 99 5 l70 0 17 -85z m-841 77 c0 -2 -27 -23 -60 -47 -33 -24 -67
-54 -75 -66 -13 -20 -15 -125 -15 -793 l0 -770 31 -36 c17 -19 44 -43 60 -52
16 -10 29 -21 29 -25 0 -4 -90 -8 -200 -8 -110 0 -200 3 -199 8 0 4 24 25 52
47 28 22 54 52 58 65 4 14 7 363 8 775 0 565 -3 757 -12 777 -7 14 -37 45 -67
69 -30 23 -59 46 -64 50 -6 5 93 9 222 9 128 0 232 -1 232 -3z m490 -818 l0
-90 -32 24 c-18 14 -52 34 -75 46 -24 12 -43 23 -43 26 0 2 24 16 54 30 30 14
59 32 66 40 24 29 30 14 30 -76z"/>
<path d="M7486 2167 l-98 -42 7 -137 7 -138 -81 0 -81 0 0 -47 0 -48 81 3 82
4 -7 -434 c-8 -474 -8 -480 51 -556 55 -73 203 -109 336 -82 78 16 96 25 93
47 -2 14 -10 17 -37 13 -144 -21 -209 14 -255 135 -17 46 -19 79 -18 405 1
195 4 381 8 413 l8 59 129 -4 129 -3 0 49 0 48 -127 -3 -128 -4 0 50 c0 28 3
110 8 183 4 72 4 132 0 132 -5 0 -52 -19 -107 -43z"/>
<path d="M15115 2174 c-44 -20 -88 -38 -97 -41 -15 -5 -16 -19 -11 -144 l6
-139 -81 0 -82 0 0 -47 0 -48 82 0 83 0 -5 -250 c-3 -137 -5 -338 -5 -445 0
-185 1 -197 24 -243 13 -26 39 -60 58 -76 68 -56 205 -75 327 -46 65 15 81 26
73 48 -4 11 -17 12 -65 5 -119 -18 -195 28 -229 138 -16 53 -18 95 -16 404 1
190 4 373 8 408 l7 64 129 -4 129 -3 0 49 0 49 -131 -7 -130 -6 6 142 c3 79 8
162 11 186 3 23 2 42 -3 42 -4 0 -44 -16 -88 -36z"/>
<path d="M5502 1885 c-29 -8 -63 -20 -75 -26 -47 -25 -128 -96 -158 -137 -17
-23 -34 -40 -39 -37 -5 3 -6 47 -3 98 l6 92 -101 0 -101 0 7 -45 c9 -60 9
-1046 0 -1087 l-7 -33 106 0 106 0 -6 68 c-14 151 -19 560 -8 662 11 106 42
191 89 245 54 63 158 100 261 93 105 -8 174 -53 219 -144 40 -80 45 -155 39
-551 l-7 -373 93 0 92 0 3 438 c3 419 2 440 -18 504 -11 37 -35 86 -53 110
-37 49 -111 102 -165 119 -62 18 -220 21 -280 4z"/>
<path d="M6598 1882 c-149 -40 -247 -162 -256 -320 -11 -198 71 -281 359 -366
98 -29 174 -76 202 -123 22 -38 25 -122 8 -176 -7 -21 -32 -53 -57 -75 -114
-101 -304 -78 -419 50 -24 26 -47 48 -52 48 -4 0 -15 -30 -25 -68 -9 -37 -19
-75 -23 -84 -15 -37 157 -88 295 -88 191 0 337 78 417 225 22 41 28 66 31 136
5 108 -7 148 -67 212 -51 55 -92 76 -223 112 -217 62 -288 121 -288 242 1 119
94 212 212 213 83 0 163 -45 205 -117 14 -24 28 -43 32 -43 4 0 17 33 28 73
12 39 24 79 28 88 5 13 -9 22 -67 44 -97 37 -241 44 -340 17z"/>
<path d="M8515 1888 c-58 -20 -135 -88 -191 -168 -31 -44 -58 -80 -61 -80 -3
0 -4 53 -1 118 l6 117 -92 0 c-50 0 -93 -3 -96 -7 -3 -3 -1 -93 3 -200 5 -106
6 -365 2 -575 l-5 -383 92 0 93 0 0 388 c0 384 0 387 24 446 28 71 82 133 136
157 49 23 133 24 182 4 19 -8 37 -15 39 -15 2 0 4 26 4 58 1 31 5 76 9 99 6
33 5 43 -6 47 -23 9 -105 5 -138 -6z"/>
<path d="M10715 1880 c-78 -26 -143 -75 -197 -147 -50 -67 -52 -63 -46 67 l3
75 -98 0 -99 0 8 -125 c10 -152 9 -816 -1 -946 l-7 -94 106 0 106 0 -8 33 c-4
17 -7 196 -7 397 0 407 3 432 68 526 90 130 317 152 425 41 18 -18 42 -60 54
-93 21 -55 22 -76 23 -324 0 -146 -4 -336 -8 -422 l-8 -158 106 0 c96 0 106 2
101 18 -11 40 -16 482 -7 658 11 225 23 261 103 325 95 75 227 91 334 40 71
-33 95 -66 120 -162 15 -56 16 -105 10 -394 -3 -181 -9 -365 -12 -407 l-7 -78
100 0 100 0 7 448 c7 486 6 493 -48 586 -64 110 -153 151 -326 151 -110 0
-119 -2 -180 -32 -81 -40 -140 -89 -181 -153 -18 -28 -35 -50 -38 -50 -3 0
-14 20 -24 44 -23 57 -102 130 -174 163 -78 36 -212 42 -298 13z"/>
<path d="M12651 1880 c-254 -67 -387 -282 -385 -625 1 -105 4 -131 29 -204 33
-95 87 -176 162 -239 130 -109 349 -157 534 -118 86 18 204 69 248 105 30 25
35 35 39 87 l5 58 -53 -46 c-95 -83 -210 -128 -330 -128 -73 0 -166 21 -208
47 -148 92 -215 213 -216 393 l-1 95 427 3 427 2 7 35 c3 19 1 76 -5 127 -25
213 -162 372 -358 413 -95 20 -232 18 -322 -5z m305 -74 c27 -13 67 -43 87
-66 58 -68 101 -202 95 -296 l-3 -49 -145 -8 c-80 -5 -228 -5 -329 -1 l-184 6
6 58 c17 157 128 324 244 365 63 23 170 19 229 -9z"/>
<path d="M14085 1886 c-27 -7 -64 -20 -81 -29 -51 -26 -141 -104 -164 -142
-35 -57 -43 -45 -38 63 l4 97 -98 0 -98 0 7 -90 c10 -117 10 -919 0 -1007 l-8
-68 107 0 c106 0 106 0 100 23 -13 41 -19 668 -8 741 14 89 69 205 113 239 61
46 116 62 214 62 80 0 95 -3 137 -28 60 -35 94 -80 121 -159 20 -58 22 -83 21
-343 0 -154 -3 -337 -7 -407 l-8 -128 98 0 98 0 0 453 c0 448 0 453 -23 508
-63 156 -182 230 -367 228 -38 0 -92 -6 -120 -13z"/>
<path d="M8908 1525 c-4 -449 -1 -539 17 -600 17 -58 76 -140 124 -172 96 -65
264 -91 377 -58 121 35 181 79 269 200 13 18 14 10 15 -82 l0 -103 88 0 87 0
0 442 c0 244 4 506 8 583 l8 140 -98 0 -98 0 0 -380 c0 -397 -3 -432 -47 -534
-22 -53 -88 -117 -145 -143 -64 -28 -158 -34 -227 -14 -76 23 -152 96 -181
176 -18 50 -20 80 -20 345 0 160 3 349 7 420 l8 130 -95 0 -95 0 -2 -350z"/>
<path d="M4150 445 l0 -55 5665 0 5665 0 0 55 0 55 -5665 0 -5665 0 0 -55z"/>
</g>
</svg>
